<svg width="67" height="66" viewBox="0 0 67 66" fill="none" xmlns="http://www.w3.org/2000/svg">
<rect x="1" y="0.5" width="65" height="65" rx="11.5" fill="#1F1F1F"/>
<rect x="1" y="0.5" width="65" height="65" rx="11.5" stroke="#333333"/>
<path fill-rule="evenodd" clip-rule="evenodd" d="M23.8267 20.4927C22.167 22.1525 22.167 24.8238 22.167 30.1663V35.833C22.167 41.1756 22.167 43.8469 23.8267 45.5066C25.4864 47.1663 28.1577 47.1663 33.5003 47.1663C38.8429 47.1663 41.5142 47.1663 43.1739 45.5066C44.8337 43.8469 44.8337 41.1756 44.8337 35.833V30.1663C44.8337 24.8238 44.8337 22.1525 43.1739 20.4927C41.5142 18.833 38.8429 18.833 33.5003 18.833C28.1577 18.833 25.4864 18.833 23.8267 20.4927ZM29.2503 22.0205C28.6635 22.0205 28.1878 22.4962 28.1878 23.083C28.1878 23.6698 28.6635 24.1455 29.2503 24.1455H37.7503C38.3371 24.1455 38.8128 23.6698 38.8128 23.083C38.8128 22.4962 38.3371 22.0205 37.7503 22.0205H29.2503ZM33.5003 42.9163C35.0651 42.9163 36.3337 41.6478 36.3337 40.083C36.3337 38.5182 35.0651 37.2497 33.5003 37.2497C31.9355 37.2497 30.667 38.5182 30.667 40.083C30.667 41.6478 31.9355 42.9163 33.5003 42.9163Z" fill="white"/>
</svg>
