<svg width="66" height="66" viewBox="0 0 66 66" fill="none" xmlns="http://www.w3.org/2000/svg">
<rect x="0.5" y="0.5" width="65" height="65" rx="11.5" fill="#6849ED"/>
<rect x="0.5" y="0.5" width="65" height="65" rx="11.5" stroke="#333333"/>
<path fill-rule="evenodd" clip-rule="evenodd" d="M35.0344 24.1927C33.7662 23.5012 32.2335 23.5012 30.9652 24.1927L24.1734 27.8961C22.8078 28.6408 21.958 30.072 21.958 31.6275V38.6225C21.958 40.1779 22.8078 41.6092 24.1734 42.3538L30.9652 46.0572C32.2335 46.7488 33.7662 46.7488 35.0344 46.0572L41.8263 42.3538C43.1919 41.6092 44.0417 40.178 44.0417 38.6225V31.6275C44.0417 30.072 43.1919 28.6408 41.8263 27.8961L35.0344 24.1927ZM33.0001 30.875C32.5977 30.875 32.3285 31.3579 31.7902 32.3236L31.6509 32.5734C31.498 32.8478 31.4215 32.985 31.3022 33.0756C31.183 33.1661 31.0344 33.1997 30.7374 33.2669L30.4669 33.3281C29.4216 33.5646 28.8989 33.6829 28.7745 34.0828C28.6502 34.4827 29.0065 34.8994 29.7192 35.7327L29.9035 35.9483C30.1061 36.1851 30.2073 36.3035 30.2529 36.45C30.2984 36.5965 30.2831 36.7545 30.2525 37.0705L30.2246 37.3581C30.1169 38.47 30.063 39.0259 30.3886 39.2731C30.7141 39.5202 31.2035 39.2949 32.1823 38.8442L32.4355 38.7277C32.7136 38.5996 32.8527 38.5356 33.0001 38.5356C33.1475 38.5356 33.2866 38.5996 33.5647 38.7277L33.818 38.8442C34.7967 39.2949 35.2861 39.5202 35.6117 39.2731C35.9372 39.0259 35.8834 38.47 35.7756 37.3581L35.7478 37.0705C35.7171 36.7545 35.7018 36.5965 35.7474 36.45C35.7929 36.3035 35.8942 36.1851 36.0967 35.9483L36.2811 35.7327C36.9937 34.8994 37.3501 34.4827 37.2257 34.0828C37.1014 33.6829 36.5787 33.5646 35.5333 33.3281L35.2629 33.2669C34.9658 33.1997 34.8173 33.1661 34.698 33.0756C34.5788 32.985 34.5023 32.8478 34.3493 32.5734L34.21 32.3236C33.6717 31.3579 33.4025 30.875 33.0001 30.875Z" fill="white"/>
<path d="M31.5834 18.8333H34.4167C37.088 18.8333 38.4237 18.8333 39.2536 19.6631C40.0834 20.493 40.0834 21.8286 40.0834 24.4999V24.5254L36.0517 22.327C34.1493 21.2897 31.8503 21.2897 29.9479 22.327L25.9167 24.5251V24.4999C25.9167 21.8286 25.9167 20.493 26.7466 19.6631C27.5765 18.8333 28.9121 18.8333 31.5834 18.8333Z" fill="white"/>
</svg>
