<svg width="266" height="92" viewBox="0 0 266 92" fill="none" xmlns="http://www.w3.org/2000/svg">
<rect x="12" y="20" width="52" height="52" rx="26" fill="url(#paint0_linear_138_4662)"/>
<path d="M39.5 38.5L47 46M47 46L39.5 53.5M47 46H29" stroke="white" stroke-width="1.5" stroke-linecap="round" stroke-linejoin="round"/>
<path d="M67.666 70.6316C62.5222 76.6011 55.6705 80.8485 48.036 82.8003C40.4015 84.7521 32.352 84.3143 24.9743 81.5459C17.5966 78.7775 11.2461 73.812 6.7801 67.3197C2.31415 60.8274 -0.0520899 53.1211 0.000869498 45.2413C0.0538289 37.3614 2.52344 29.6876 7.07625 23.2559C11.6291 16.8243 18.0458 11.9445 25.46 9.27557C32.8743 6.60661 40.929 6.27699 48.5365 8.33121C56.144 10.3854 62.938 14.7246 68.0011 20.7627L66.6852 21.8662C61.8479 16.0974 55.357 11.9518 48.0888 9.9892C40.8206 8.02661 33.1252 8.34153 26.0417 10.8914C18.9582 13.4413 12.8277 18.1034 8.47797 24.2482C4.12825 30.393 1.7688 37.7245 1.7182 45.2528C1.6676 52.7811 3.9283 60.1437 8.19503 66.3464C12.4618 72.549 18.5291 77.2931 25.5777 79.938C32.6263 82.5829 40.3167 83.0012 47.6106 81.1365C54.9045 79.2718 61.4506 75.2138 66.365 69.5105L67.666 70.6316Z" fill="url(#paint1_linear_138_4662)"/>
<path d="M72.9609 48.3125V47.9727H75.5508V48.2773C75.5508 49.2695 75.8633 50.0156 76.4883 50.5156C77.1211 51.0078 78 51.2539 79.125 51.2539C80.25 51.2539 81.1094 51.0078 81.7031 50.5156C82.3047 50.0234 82.6055 49.375 82.6055 48.5703C82.6055 47.8125 82.3203 47.2148 81.75 46.7773C81.1797 46.332 80.0586 45.8594 78.3867 45.3594C76.6055 44.8359 75.3086 44.2031 74.4961 43.4609C73.6836 42.7109 73.2773 41.6602 73.2773 40.3086C73.2773 38.9258 73.7891 37.7969 74.8125 36.9219C75.8359 36.0469 77.2383 35.6094 79.0195 35.6094C80.793 35.6094 82.207 36.0625 83.2617 36.9688C84.3242 37.8672 84.8555 39.0508 84.8555 40.5195V40.8125H82.2891V40.5547C82.2891 39.6875 82.0156 38.9961 81.4688 38.4805C80.9219 37.957 80.1094 37.6953 79.0312 37.6953C77.9375 37.6953 77.1328 37.918 76.6172 38.3633C76.1094 38.8086 75.8555 39.4102 75.8555 40.168C75.8555 40.8789 76.125 41.4375 76.6641 41.8438C77.2109 42.2422 78.3281 42.6914 80.0156 43.1914C81.7734 43.707 83.0742 44.3594 83.918 45.1484C84.7617 45.9375 85.1836 47.043 85.1836 48.4648C85.1836 49.9336 84.6367 51.1133 83.543 52.0039C82.4492 52.8867 80.9805 53.3281 79.1367 53.3281C77.2852 53.3281 75.793 52.8906 74.6602 52.0156C73.5273 51.1406 72.9609 49.9062 72.9609 48.3125ZM86.3086 38.0234V35.9375H99.3281V38.0234H94.125V53H91.5117V38.0234H86.3086ZM98.5078 53L104.707 35.8555H107.344L113.566 53H110.859L106.406 40.2266C106.32 39.9531 106.242 39.6953 106.172 39.4531C106.109 39.2109 106.051 38.9648 105.996 38.7148H105.902C105.84 38.9648 105.773 39.2109 105.703 39.4531C105.641 39.6953 105.562 39.9531 105.469 40.2266L101.027 53H98.5078ZM101.438 48.7344L102.105 46.7305H109.875L110.531 48.7344H101.438ZM115.266 53V35.9375H120.902C122.715 35.9375 124.113 36.3984 125.098 37.3203C126.09 38.2422 126.586 39.4844 126.586 41.0469C126.586 42.6172 126.09 43.8789 125.098 44.832C124.105 45.7773 122.707 46.25 120.902 46.25H117.855V53H115.266ZM117.855 44.2461H120.797C121.984 44.2461 122.812 43.9453 123.281 43.3438C123.75 42.7422 123.988 41.9844 123.996 41.0703C123.996 40.1641 123.758 39.4219 123.281 38.8438C122.812 38.2656 121.984 37.9727 120.797 37.9648H117.855V44.2461ZM124.523 53L120.48 45.1602L123.094 44.8438L127.418 53H124.523ZM127.23 38.0234V35.9375H140.25V38.0234H135.047V53H132.434V38.0234H127.23ZM145.5 53L151.699 35.8555H154.336L160.559 53H157.852L153.398 40.2266C153.312 39.9531 153.234 39.6953 153.164 39.4531C153.102 39.2109 153.043 38.9648 152.988 38.7148H152.895C152.832 38.9648 152.766 39.2109 152.695 39.4531C152.633 39.6953 152.555 39.9531 152.461 40.2266L148.02 53H145.5ZM148.43 48.7344L149.098 46.7305H156.867L157.523 48.7344H148.43ZM167.836 53V35.9375H173.637C175.48 35.9375 176.895 36.4141 177.879 37.3672C178.863 38.3203 179.355 39.6055 179.355 41.2227C179.355 42.832 178.863 44.1211 177.879 45.0898C176.902 46.0586 175.484 46.543 173.625 46.543H170.426V53H167.836ZM170.426 44.5039H173.461C174.688 44.5039 175.543 44.1953 176.027 43.5781C176.512 42.9531 176.754 42.1719 176.754 41.2344C176.754 40.2969 176.512 39.5234 176.027 38.9141C175.543 38.2969 174.688 37.9883 173.461 37.9883H170.426V44.5039ZM181.711 53V35.9375H187.348C189.16 35.9375 190.559 36.3984 191.543 37.3203C192.535 38.2422 193.031 39.4844 193.031 41.0469C193.031 42.6172 192.535 43.8789 191.543 44.832C190.551 45.7773 189.152 46.25 187.348 46.25H184.301V53H181.711ZM184.301 44.2461H187.242C188.43 44.2461 189.258 43.9453 189.727 43.3438C190.195 42.7422 190.434 41.9844 190.441 41.0703C190.441 40.1641 190.203 39.4219 189.727 38.8438C189.258 38.2656 188.43 37.9727 187.242 37.9648H184.301V44.2461ZM190.969 53L186.926 45.1602L189.539 44.8438L193.863 53H190.969ZM195.398 44.9844V43.9531C195.398 41.2266 196.059 39.1562 197.379 37.7422C198.707 36.3203 200.418 35.6094 202.512 35.6094C204.598 35.6094 206.305 36.3203 207.633 37.7422C208.961 39.1562 209.625 41.2266 209.625 43.9531V44.9844C209.625 47.7109 208.961 49.7852 207.633 51.207C206.305 52.6211 204.598 53.3281 202.512 53.3281C200.418 53.3281 198.707 52.6211 197.379 51.207C196.059 49.7852 195.398 47.7109 195.398 44.9844ZM198.047 45.1602C198.047 47.1602 198.453 48.6719 199.266 49.6953C200.078 50.7188 201.16 51.2305 202.512 51.2305C203.863 51.2305 204.945 50.7188 205.758 49.6953C206.57 48.6719 206.977 47.1602 206.977 45.1602V43.7773C206.977 41.7773 206.57 40.2656 205.758 39.2422C204.945 38.2188 203.863 37.707 202.512 37.707C201.16 37.707 200.078 38.2188 199.266 39.2422C198.453 40.2656 198.047 41.7773 198.047 43.7773V45.1602ZM211.113 48.1133V47.8906H213.656V48.1367C213.656 49.1914 213.895 49.9727 214.371 50.4805C214.855 50.9883 215.547 51.2422 216.445 51.2422C217.328 51.2422 218.012 50.9688 218.496 50.4219C218.988 49.8672 219.234 49.0078 219.234 47.8438V35.9375H221.836V47.7383C221.836 49.4961 221.352 50.8672 220.383 51.8516C219.422 52.8359 218.117 53.3281 216.469 53.3281C214.836 53.3281 213.535 52.8789 212.566 51.9805C211.598 51.082 211.113 49.793 211.113 48.1133ZM225.281 53V35.9375H235.887V38.0234H227.859V43.1914H234.797V45.2422H227.859V50.9258H236.004V53H225.281ZM237.867 44.9844V43.9531C237.867 41.2266 238.527 39.1562 239.848 37.7422C241.176 36.3203 242.863 35.6094 244.91 35.6094C246.918 35.6094 248.492 36.1523 249.633 37.2383C250.773 38.3164 251.344 39.6875 251.344 41.3516V41.6211H248.742V41.3164C248.742 40.2148 248.422 39.3398 247.781 38.6914C247.148 38.0352 246.188 37.707 244.898 37.707C243.594 37.707 242.539 38.1992 241.734 39.1836C240.93 40.1602 240.527 41.6836 240.527 43.7539V45.1836C240.527 47.1289 240.93 48.625 241.734 49.6719C242.539 50.7109 243.602 51.2305 244.922 51.2305C246.148 51.2305 247.074 50.8984 247.699 50.2344C248.324 49.5703 248.672 48.6914 248.742 47.5977V47.3281H251.344L251.332 47.6328C251.23 49.2578 250.637 50.6133 249.551 51.6992C248.473 52.7773 246.922 53.3164 244.898 53.3164C242.82 53.3164 241.129 52.6055 239.824 51.1836C238.52 49.7539 237.867 47.6875 237.867 44.9844ZM252.551 38.0234V35.9375H265.57V38.0234H260.367V53H257.754V38.0234H252.551Z" fill="url(#paint2_linear_138_4662)"/>
<defs>
<linearGradient id="paint0_linear_138_4662" x1="12" y1="20" x2="66.6504" y2="60.0124" gradientUnits="userSpaceOnUse">
<stop stop-color="#6A35EE"/>
<stop offset="0.152794" stop-color="#9930EF"/>
<stop offset="0.531809" stop-color="#5737EE"/>
<stop offset="1" stop-color="#795CEB"/>
</linearGradient>
<linearGradient id="paint1_linear_138_4662" x1="0" y1="7" x2="80.9247" y2="66.2491" gradientUnits="userSpaceOnUse">
<stop stop-color="#6A35EE"/>
<stop offset="0.152794" stop-color="#9930EF"/>
<stop offset="0.531809" stop-color="#5737EE"/>
<stop offset="1" stop-color="#795CEB"/>
</linearGradient>
<linearGradient id="paint2_linear_138_4662" x1="72" y1="27" x2="90.9041" y2="101.586" gradientUnits="userSpaceOnUse">
<stop stop-color="#6A35EE"/>
<stop offset="0.152794" stop-color="#9930EF"/>
<stop offset="0.531809" stop-color="#5737EE"/>
<stop offset="1" stop-color="#795CEB"/>
</linearGradient>
</defs>
</svg>
