<svg width="67" height="66" viewBox="0 0 67 66" fill="none" xmlns="http://www.w3.org/2000/svg">
<rect x="1" y="0.5" width="65" height="65" rx="11.5" fill="#1F1F1F"/>
<rect x="1" y="0.5" width="65" height="65" rx="11.5" stroke="#333333"/>
<path d="M19.333 25.208C19.333 21.6872 22.1872 18.833 25.708 18.833C29.2288 18.833 32.083 21.6872 32.083 25.208V29.458C32.083 29.9521 32.083 30.1991 32.0287 30.4018C31.8813 30.9517 31.4517 31.3813 30.9018 31.5287C30.6991 31.583 30.4521 31.583 29.958 31.583H25.708C22.1872 31.583 19.333 28.7288 19.333 25.208Z" fill="white"/>
<path d="M34.9163 36.5413C34.9163 36.0473 34.9163 35.8003 34.9706 35.5976C35.118 35.0476 35.5476 34.618 36.0976 34.4706C36.3003 34.4163 36.5473 34.4163 37.0413 34.4163H41.2913C44.8122 34.4163 47.6663 37.2705 47.6663 40.7913C47.6663 44.3122 44.8122 47.1663 41.2913 47.1663C37.7705 47.1663 34.9163 44.3122 34.9163 40.7913V36.5413Z" fill="white"/>
<path d="M19.333 40.7913C19.333 37.2705 22.1872 34.4163 25.708 34.4163H29.533C30.4256 34.4163 30.8719 34.4163 31.2128 34.5901C31.5127 34.7428 31.7565 34.9867 31.9093 35.2865C32.083 35.6275 32.083 36.0738 32.083 36.9663V40.7913C32.083 44.3122 29.2288 47.1663 25.708 47.1663C22.1872 47.1663 19.333 44.3122 19.333 40.7913Z" fill="white"/>
<path d="M34.9163 25.208C34.9163 21.6872 37.7705 18.833 41.2913 18.833C44.8122 18.833 47.6663 21.6872 47.6663 25.208C47.6663 28.7288 44.8122 31.583 41.2913 31.583H36.7378C36.5263 31.583 36.4206 31.583 36.3316 31.573C35.5928 31.4897 35.0096 30.9066 34.9264 30.1677C34.9163 30.0788 34.9163 29.973 34.9163 29.7616V25.208Z" fill="white"/>
</svg>
