<svg width="66" height="66" viewBox="0 0 66 66" fill="none" xmlns="http://www.w3.org/2000/svg">
<rect x="0.5" y="0.5" width="65" height="65" rx="11.5" fill="#111111"/>
<rect x="0.5" y="0.5" width="65" height="65" rx="11.5" stroke="#333333"/>
<path d="M34.4668 21.1728L33.6549 21.6535C32.7632 22.1816 32.3174 22.4457 31.8262 22.5072C31.335 22.5687 30.8542 22.4207 29.8924 22.1248L29.0169 21.8553C25.6325 20.8139 23.9403 20.2932 22.9232 21.2242C21.906 22.1552 22.2374 23.9213 22.9004 27.4536L23.0719 28.3674C23.2603 29.3711 23.3545 29.873 23.2427 30.3633C23.131 30.8536 22.826 31.2768 22.216 32.1232L21.6606 32.8938C19.5139 35.8723 18.4405 37.3616 18.9642 38.5963C19.4878 39.8309 21.2617 39.9933 24.8094 40.318L25.7272 40.402C26.7353 40.4943 27.2394 40.5404 27.6615 40.7819C28.0836 41.0234 28.376 41.4329 28.9607 42.252L29.493 42.9977C31.5507 45.88 32.5795 47.3211 33.9203 47.1532C35.2611 46.9852 36.0259 45.3195 37.5556 41.9879L37.9513 41.126C38.1735 40.6421 38.3389 40.2819 38.4972 39.9998L44.9984 46.501C45.4133 46.9159 46.086 46.9159 46.501 46.501C46.9159 46.086 46.9159 45.4133 46.501 44.9984L40.2226 38.72C40.3955 38.6571 40.5884 38.5896 40.8057 38.5135L41.69 38.2038C45.1084 37.0066 46.8176 36.408 47.1226 35.0695C47.4277 33.7311 46.1265 32.5392 43.5242 30.1555L42.8509 29.5388C42.1115 28.8614 41.7417 28.5227 41.5499 28.0704C41.358 27.6182 41.3659 27.1035 41.3815 26.0742L41.3958 25.1371C41.4508 21.5149 41.4783 19.7038 40.326 19.0445C39.1737 18.3853 37.6047 19.3144 34.4668 21.1728Z" fill="white"/>
</svg>
