<svg width="66" height="66" viewBox="0 0 66 66" fill="none" xmlns="http://www.w3.org/2000/svg">
<rect width="66" height="66" rx="12" fill="#111111"/>
<path fill-rule="evenodd" clip-rule="evenodd" d="M43.6246 29.5437C43.672 35.4116 38.7821 40.8387 32.9143 40.7913C27.0464 40.744 22.4227 35.2401 22.3754 29.3723C22.328 23.5044 27.0464 18.786 32.9143 18.8334C38.7821 18.8807 43.5773 23.6759 43.6246 29.5437ZM33.7169 23.4372C33.1301 23.4325 32.6506 23.9043 32.6459 24.4911C32.6411 25.0779 33.113 25.5574 33.6998 25.5621C35.4481 25.5762 36.8818 27.0099 36.8959 28.7582C36.9006 29.345 37.3801 29.8169 37.9669 29.8121C38.5537 29.8074 39.0255 29.3279 39.0208 28.7411C38.9973 25.8326 36.6254 23.4607 33.7169 23.4372Z" fill="white"/>
<path d="M36.0703 41.8037C36.541 43.3087 35.5656 44.8237 34.063 45.129V47.1665C34.063 47.7533 33.5873 48.229 33.0005 48.229C32.4137 48.229 31.938 47.7533 31.938 47.1665V45.129C30.4354 44.8237 29.4601 43.3087 29.9307 41.8037L29.9405 41.7735C30.8816 42.0479 31.8732 42.1998 32.9034 42.2081C33.9956 42.2169 35.0536 42.0628 36.0597 41.7705C36.0635 41.7816 36.0669 41.7927 36.0703 41.8037Z" fill="white"/>
</svg>
