<svg width="19" height="20" viewBox="0 0 19 20" fill="none" xmlns="http://www.w3.org/2000/svg">
<g clip-path="url(#clip0_105_2191)">
<path d="M7.51843 10.3772C7.13395 10.249 7.13395 9.70608 7.51843 9.57791L9.77526 8.82641C10.2714 8.661 10.7221 8.38231 11.0918 8.01242C11.4615 7.64253 11.74 7.19162 11.9051 6.69542L12.6566 4.43975C12.7848 4.05526 13.3277 4.05526 13.4559 4.43975L14.2074 6.69658C14.3728 7.19269 14.6515 7.64345 15.0214 8.01314C15.3912 8.38282 15.8422 8.66127 16.3384 8.82641L18.594 9.57791C18.6782 9.60554 18.7515 9.65906 18.8035 9.73083C18.8555 9.80259 18.8835 9.88894 18.8835 9.97755C18.8835 10.0662 18.8555 10.1525 18.8035 10.2243C18.7515 10.296 18.6782 10.3496 18.594 10.3772L16.3372 11.1287C15.8412 11.294 15.3905 11.5725 15.0209 11.9422C14.6512 12.3119 14.3727 12.7625 14.2074 13.2585L13.4559 15.5153C13.4282 15.5995 13.3747 15.6729 13.303 15.7248C13.2312 15.7768 13.1448 15.8048 13.0562 15.8048C12.9676 15.8048 12.8813 15.7768 12.8095 15.7248C12.7377 15.6729 12.6842 15.5995 12.6566 15.5153L11.9051 13.2585C11.7398 12.7625 11.4613 12.3119 11.0916 11.9422C10.7219 11.5725 10.2712 11.294 9.77526 11.1287L7.51843 10.3772ZM1.57751 14.878C1.52705 14.8613 1.48314 14.8291 1.45202 14.786C1.4209 14.743 1.40415 14.6912 1.40415 14.638C1.40415 14.5849 1.4209 14.5331 1.45202 14.49C1.48314 14.4469 1.52705 14.4147 1.57751 14.398L2.93137 13.9471C3.5349 13.7455 4.00794 13.2725 4.2095 12.669L4.6604 11.3151C4.67711 11.2646 4.70929 11.2207 4.75238 11.1896C4.79547 11.1585 4.84727 11.1417 4.90042 11.1417C4.95357 11.1417 5.00537 11.1585 5.04845 11.1896C5.09154 11.2207 5.12372 11.2646 5.14043 11.3151L5.59133 12.669C5.6905 12.9666 5.85763 13.2371 6.07949 13.4589C6.30134 13.6808 6.57181 13.8479 6.86946 13.9471L8.22333 14.398C8.27378 14.4147 8.31769 14.4469 8.34881 14.49C8.37993 14.5331 8.39668 14.5849 8.39668 14.638C8.39668 14.6912 8.37993 14.743 8.34881 14.786C8.31769 14.8291 8.27378 14.8613 8.22333 14.878L6.86946 15.3289C6.57181 15.4281 6.30134 15.5952 6.07949 15.8171C5.85763 16.0389 5.6905 16.3094 5.59133 16.6071L5.14043 17.9609C5.12372 18.0114 5.09154 18.0553 5.04845 18.0864C5.00537 18.1175 4.95357 18.1343 4.90042 18.1343C4.84727 18.1343 4.79547 18.1175 4.75238 18.0864C4.7093 18.0553 4.67711 18.0114 4.6604 17.9609L4.2095 16.6071C4.11033 16.3094 3.9432 16.0389 3.72135 15.8171C3.4995 15.5952 3.22903 15.4281 2.93137 15.3289L1.57751 14.878ZM0.355301 6.64182C0.322125 6.63032 0.293358 6.60877 0.272999 6.58016C0.252639 6.55155 0.241699 6.51731 0.241699 6.4822C0.241699 6.44709 0.252639 6.41285 0.272999 6.38424C0.293358 6.35564 0.322125 6.33408 0.355301 6.32258L1.2571 6.02198C1.66023 5.88799 1.97598 5.57225 2.10996 5.16912L2.41056 4.26732C2.42207 4.23414 2.44362 4.20537 2.47223 4.18501C2.50083 4.16466 2.53507 4.15372 2.57019 4.15372C2.6053 4.15372 2.63954 4.16466 2.66815 4.18501C2.69675 4.20537 2.7183 4.23414 2.72981 4.26732L3.03041 5.16912C3.0965 5.36778 3.20799 5.54831 3.35604 5.69635C3.50408 5.8444 3.68461 5.95589 3.88327 6.02198L4.78507 6.32258C4.81825 6.33408 4.84701 6.35564 4.86737 6.38424C4.88773 6.41285 4.89867 6.44709 4.89867 6.4822C4.89867 6.51731 4.88773 6.55155 4.86737 6.58016C4.84701 6.60877 4.81825 6.63032 4.78507 6.64182L3.88327 6.94242C3.68461 7.00851 3.50408 7.12001 3.35604 7.26805C3.20799 7.4161 3.0965 7.59662 3.03041 7.79529L2.72981 8.69592C2.71831 8.7291 2.69675 8.75786 2.66815 8.77822C2.63954 8.79858 2.6053 8.80952 2.57019 8.80952C2.53507 8.80952 2.50083 8.79858 2.47223 8.77822C2.44362 8.75786 2.42207 8.7291 2.41056 8.69592L2.10997 7.79412C1.97598 7.39099 1.66023 7.07525 1.2571 6.94126L0.356466 6.64182L0.355301 6.64182Z" fill="url(#paint0_linear_105_2191)"/>
</g>
<defs>
<linearGradient id="paint0_linear_105_2191" x1="9.56259" y1="18.1343" x2="9.56259" y2="4.15139" gradientUnits="userSpaceOnUse">
<stop stop-color="#84A2FF"/>
<stop offset="0.5" stop-color="#A0F7DD"/>
<stop offset="1" stop-color="#88B7FF"/>
</linearGradient>
<clipPath id="clip0_105_2191">
<rect width="18.6419" height="18.6419" fill="white" transform="translate(0.237793 19.2993) rotate(-90)"/>
</clipPath>
</defs>
</svg>
