<svg width="17" height="16" viewBox="0 0 17 16" fill="none" xmlns="http://www.w3.org/2000/svg">
<g clip-path="url(#clip0_13_387)">
<path d="M6.82673 8.32733C6.51173 8.22233 6.51173 7.77752 6.82673 7.67252L8.67568 7.05683C9.08213 6.92132 9.45142 6.69299 9.7543 6.38995C10.0572 6.08691 10.2853 5.71749 10.4206 5.31097L11.0363 3.46297C11.1413 3.14797 11.5861 3.14797 11.6911 3.46297L12.3068 5.31193C12.4423 5.71837 12.6706 6.08767 12.9737 6.39054C13.2767 6.69341 13.6461 6.92154 14.0526 7.05683L15.9006 7.67252C15.9696 7.69515 16.0297 7.739 16.0723 7.79779C16.1148 7.85659 16.1378 7.92733 16.1378 7.99992C16.1378 8.07252 16.1148 8.14326 16.0723 8.20206C16.0297 8.26085 15.9696 8.3047 15.9006 8.32733L14.0517 8.94302C13.6453 9.07844 13.2761 9.30662 12.9732 9.60949C12.6704 9.91235 12.4422 10.2816 12.3068 10.6879L11.6911 12.5369C11.6685 12.6059 11.6246 12.6659 11.5658 12.7085C11.507 12.7511 11.4363 12.774 11.3637 12.774C11.2911 12.774 11.2203 12.7511 11.1615 12.7085C11.1028 12.6659 11.0589 12.6059 11.0363 12.5369L10.4206 10.6879C10.2852 10.2816 10.057 9.91235 9.75412 9.60949C9.45126 9.30662 9.08203 9.07844 8.67568 8.94302L6.82673 8.32733ZM1.9595 12.0147C1.91816 12.0011 1.88219 11.9747 1.8567 11.9394C1.8312 11.9041 1.81748 11.8617 1.81748 11.8181C1.81748 11.7746 1.8312 11.7321 1.8567 11.6968C1.88219 11.6615 1.91816 11.6352 1.9595 11.6215L3.06868 11.2521C3.56314 11.0869 3.95068 10.6994 4.11582 10.2049L4.48523 9.09574C4.49892 9.05441 4.52528 9.01843 4.56058 8.99294C4.59588 8.96744 4.63832 8.95372 4.68186 8.95372C4.72541 8.95372 4.76785 8.96744 4.80315 8.99294C4.83845 9.01843 4.86481 9.05441 4.8785 9.09574L5.24791 10.2049C5.32916 10.4488 5.46608 10.6704 5.64784 10.8521C5.8296 11.0339 6.05118 11.1708 6.29505 11.2521L7.40423 11.6215C7.44557 11.6352 7.48154 11.6615 7.50703 11.6968C7.53253 11.7321 7.54625 11.7746 7.54625 11.8181C7.54625 11.8617 7.53253 11.9041 7.50703 11.9394C7.48154 11.9747 7.44557 12.0011 7.40423 12.0147L6.29505 12.3842C6.05118 12.4654 5.8296 12.6023 5.64784 12.7841C5.46608 12.9658 5.32916 13.1874 5.24791 13.4313L4.8785 14.5405C4.86481 14.5818 4.83845 14.6178 4.80315 14.6433C4.76785 14.6688 4.72541 14.6825 4.68186 14.6825C4.63832 14.6825 4.59588 14.6688 4.56058 14.6433C4.52528 14.6178 4.49892 14.5818 4.48523 14.5405L4.11582 13.4313C4.03457 13.1874 3.89764 12.9658 3.71589 12.7841C3.53413 12.6023 3.31255 12.4654 3.06868 12.3842L1.9595 12.0147ZM0.958183 5.26706C0.931003 5.25764 0.907435 5.23998 0.890755 5.21655C0.874075 5.19311 0.865112 5.16506 0.865112 5.13629C0.865112 5.10752 0.874075 5.07947 0.890755 5.05603C0.907435 5.0326 0.931003 5.01494 0.958183 5.00552L1.697 4.75924C2.02727 4.64947 2.28596 4.39079 2.39573 4.06052L2.642 3.3217C2.65142 3.29452 2.66908 3.27095 2.69252 3.25427C2.71595 3.23759 2.74401 3.22863 2.77277 3.22863C2.80154 3.22863 2.82959 3.23759 2.85303 3.25427C2.87647 3.27095 2.89412 3.29452 2.90355 3.3217L3.14982 4.06052C3.20396 4.22328 3.29531 4.37117 3.4166 4.49247C3.53789 4.61376 3.68579 4.7051 3.84855 4.75924L4.58736 5.00552C4.61454 5.01494 4.63811 5.0326 4.65479 5.05603C4.67147 5.07947 4.68044 5.10752 4.68044 5.13629C4.68044 5.16506 4.67147 5.19311 4.65479 5.21654C4.63811 5.23998 4.61454 5.25764 4.58736 5.26706L3.84855 5.51334C3.68579 5.56748 3.53789 5.65882 3.4166 5.78011C3.29531 5.9014 3.20396 6.0493 3.14982 6.21206L2.90355 6.94993C2.89412 6.97711 2.87647 7.00067 2.85303 7.01735C2.82959 7.03403 2.80154 7.043 2.77277 7.043C2.74401 7.043 2.71596 7.03403 2.69252 7.01735C2.66908 7.00067 2.65142 6.97711 2.642 6.94993L2.39573 6.21111C2.28596 5.88084 2.02727 5.62215 1.697 5.51238L0.959137 5.26706L0.958183 5.26706Z" fill="url(#paint0_linear_13_387)"/>
</g>
<defs>
<linearGradient id="paint0_linear_13_387" x1="8.50144" y1="14.6825" x2="8.50144" y2="3.22672" gradientUnits="userSpaceOnUse">
<stop stop-color="#84A2FF"/>
<stop offset="0.5" stop-color="#A0F7DD"/>
<stop offset="1" stop-color="#88B7FF"/>
</linearGradient>
<clipPath id="clip0_13_387">
<rect width="15.2727" height="15.2727" fill="white" transform="translate(0.863647 15.6364) rotate(-90)"/>
</clipPath>
</defs>
</svg>
