<svg width="26" height="26" viewBox="0 0 26 26" fill="none" xmlns="http://www.w3.org/2000/svg">
<g clip-path="url(#clip0_1_243)">
<path d="M8.45815 19.3948L7.21073 21.8896C5.62184 21.2275 3.9765 20.5655 2.22731 19.426C1.61732 19.0285 1.24746 18.3532 1.2328 17.6253C1.15671 13.8887 2.03333 10.1321 4.25295 6.16032C4.54345 5.64046 5.02744 5.25937 5.58878 5.0601C6.92788 4.58483 7.83693 4.21747 9.39371 3.95801L10.3293 5.6732C10.3293 5.6732 11.2648 5.36135 12.8241 5.36135C14.3834 5.36135 15.3189 5.6732 15.3189 5.6732L16.2545 3.95801C17.8113 4.21747 18.7203 4.58483 20.0594 5.0601C20.6208 5.25937 21.1048 5.64046 21.3953 6.16032C23.6149 10.1321 24.4915 13.8887 24.4156 17.6253C24.4007 18.3532 24.0309 19.0285 23.4209 19.426C21.6717 20.5655 20.0265 21.2275 18.4375 21.8896L17.1901 19.3948M6.58702 18.1474C6.58702 18.1474 9.70556 19.7066 12.8241 19.7066C15.9426 19.7066 19.0612 18.1474 19.0612 18.1474" stroke="white" stroke-width="1.87112" stroke-linecap="round" stroke-linejoin="round"/>
<path d="M8.9261 15.9644C10.0456 15.9644 10.9531 14.9173 10.9531 13.6255C10.9531 12.3338 10.0456 11.2866 8.9261 11.2866C7.80659 11.2866 6.89905 12.3338 6.89905 13.6255C6.89905 14.9173 7.80659 15.9644 8.9261 15.9644Z" fill="white"/>
<path d="M16.7222 15.9644C17.8417 15.9644 18.7493 14.9173 18.7493 13.6255C18.7493 12.3338 17.8417 11.2866 16.7222 11.2866C15.6027 11.2866 14.6952 12.3338 14.6952 13.6255C14.6952 14.9173 15.6027 15.9644 16.7222 15.9644Z" fill="white"/>
</g>
<defs>
<clipPath id="clip0_1_243">
<rect width="25.3001" height="25.3001" fill="white" transform="translate(0.174194 0.208008)"/>
</clipPath>
</defs>
</svg>
