<svg width="23" height="22" viewBox="0 0 23 22" fill="none" xmlns="http://www.w3.org/2000/svg">
<path fill-rule="evenodd" clip-rule="evenodd" d="M19.8023 0.460645C20.0725 0.332929 20.3683 0.288881 20.6589 0.333084C20.9494 0.377288 21.2241 0.508127 21.4543 0.711983C21.6846 0.915839 21.8619 1.18526 21.968 1.4922C22.074 1.79915 22.1048 2.13239 22.0572 2.45725L19.577 19.3498C19.3364 20.9793 17.7442 21.9137 16.4133 21.1021C15.3 20.423 13.6466 19.3768 12.1593 18.2852C11.4157 17.7388 9.13775 15.989 9.41771 14.7439C9.65829 13.6793 13.4858 9.67868 15.673 7.30019C16.5314 6.36574 16.1399 5.82668 15.1262 6.68623C12.6088 8.82036 8.56691 12.0658 7.23056 12.9794C6.05169 13.7849 5.4371 13.9224 4.70222 13.7849C3.3615 13.5344 2.1181 13.1463 1.10327 12.6736C-0.268076 12.0351 -0.201368 9.91813 1.10217 9.30171L19.8023 0.460645Z" fill="white"/>
</svg>
