<svg width="66" height="66" viewBox="0 0 66 66" fill="none" xmlns="http://www.w3.org/2000/svg">
<rect x="0.5" y="0.5" width="65" height="65" rx="11.5" fill="#1F1F1F"/>
<rect x="0.5" y="0.5" width="65" height="65" rx="11.5" stroke="#333333"/>
<path d="M21.7306 23.7795L23.7795 21.7306C25.7113 19.7989 26.6771 18.833 27.8774 18.833C29.0776 18.833 30.0435 19.7989 31.9752 21.7306L28.5604 25.1455L21.7306 31.9752L21.7306 31.9752C19.7989 30.0435 18.833 29.0776 18.833 27.8774C18.833 26.6771 19.7989 25.7113 21.7306 23.7795L21.7306 23.7795Z" fill="white"/>
<path d="M44.2687 42.2198L42.2198 44.2687C40.2881 46.2005 39.3222 47.1663 38.122 47.1663C36.9218 47.1663 35.9559 46.2005 34.0242 44.2688L34.0241 44.2687L40.8539 37.439L44.2687 34.0241C46.2005 35.9559 47.1663 36.9217 47.1663 38.122C47.1663 39.3222 46.2005 40.2881 44.2687 42.2198Z" fill="white"/>
<path d="M32.1498 41.728L32.1498 41.728L42.6273 31.2505C41.2013 30.657 39.5123 29.6821 37.915 28.0848C36.3174 26.4872 35.3425 24.798 34.749 23.3719L24.2713 33.8495L24.2713 33.8496C23.4537 34.6672 23.0449 35.076 22.6933 35.5268C22.2785 36.0585 21.9229 36.6339 21.6328 37.2426C21.3869 37.7587 21.204 38.3072 20.8384 39.4042L18.9101 45.1889C18.7302 45.7287 18.8707 46.3239 19.2731 46.7263C19.6754 47.1286 20.2706 47.2691 20.8104 47.0892L26.5952 45.161C27.6922 44.7953 28.2407 44.6125 28.7567 44.3665C29.3655 44.0764 29.9408 43.7208 30.4726 43.3061C30.9233 42.9545 31.3322 42.5456 32.1498 41.728Z" fill="white"/>
<path d="M45.5347 28.3432C47.7102 26.1676 47.7102 22.6403 45.5347 20.4647C43.3591 18.2891 39.8318 18.2891 37.6562 20.4647L36.3995 21.7213C36.4167 21.7733 36.4346 21.826 36.4531 21.8793C36.9137 23.207 37.7828 24.9473 39.4176 26.5822C41.0525 28.2171 42.7929 29.0861 44.1205 29.5467C44.1736 29.5651 44.226 29.5829 44.2778 29.6L45.5347 28.3432Z" fill="white"/>
</svg>
